<svg width="1024" height="340" viewBox="0 0 1024 340" fill="none" xmlns="http://www.w3.org/2000/svg">
<g style="mix-blend-mode:difference">
<path d="M1022.87 80.7717C1026.32 100.487 1015.5 121.849 992.689 143.635C969.896 165.406 935.233 187.5 891.278 208.656C803.375 250.965 678.415 289.469 537.239 314.127C396.062 338.785 265.435 344.922 168.371 334.919C119.836 329.918 79.7219 320.884 50.8833 308.131C22.0245 295.369 4.58316 278.944 1.13069 259.228C-2.32175 239.513 8.50225 218.151 31.3113 196.365C54.1043 174.594 88.7672 152.5 132.722 131.344C220.625 89.035 345.585 50.5306 486.761 25.8727C627.938 1.21481 758.565 -4.92155 855.629 5.08083C904.164 10.0824 944.278 19.1164 973.117 31.869C1001.98 44.6306 1019.42 61.0561 1022.87 80.7717Z" stroke="#F9F5EF"/>
</g>
</svg>
