<svg width="40" height="129" viewBox="0 0 40 129" fill="none" xmlns="http://www.w3.org/2000/svg">
<path d="M0 0H40V128.333H0V0Z" fill="#D2330F"/>
<path d="M22.6194 113.517C22.4333 113.876 22.1685 114.189 21.8445 114.432C21.5205 114.676 21.1456 114.844 20.7475 114.924L20.0203 113.774C20.4898 113.658 20.8689 113.474 21.1552 113.222C21.4416 112.97 21.5848 112.647 21.5848 112.254C21.5848 111.954 21.5086 111.713 21.3579 111.531C21.208 111.349 20.9781 111.257 20.6707 111.257C20.4793 111.257 20.3105 111.319 20.1628 111.444C20.0093 111.576 19.8791 111.733 19.7777 111.908C19.6677 112.094 19.5282 112.36 19.3587 112.703L19.205 113.02C18.9842 113.458 18.7076 113.808 18.373 114.071C18.0392 114.334 17.6111 114.464 17.0897 114.464C16.7008 114.464 16.3489 114.375 16.0331 114.197C15.7166 114.018 15.4695 113.766 15.2901 113.441C15.1108 113.116 15.0211 112.745 15.0211 112.33C15.0211 111.272 15.4875 110.549 16.419 110.162L17.1567 111.312C16.6134 111.501 16.3414 111.841 16.3414 112.33C16.3414 112.541 16.4092 112.724 16.5456 112.876C16.6827 113.03 16.8485 113.107 17.0467 113.107C17.2449 113.107 17.4197 113.039 17.5697 112.904C17.725 112.763 17.8554 112.596 17.9555 112.412C18.0618 112.219 18.1997 111.939 18.3685 111.575C18.5373 111.217 18.7106 110.916 18.8862 110.672C19.0679 110.423 19.3032 110.217 19.575 110.07C19.8576 109.912 20.2004 109.834 20.6051 109.834C21.0671 109.834 21.4732 109.938 21.8214 110.147C22.1703 110.355 22.4386 110.645 22.6255 111.017C22.8123 111.389 22.9065 111.812 22.9065 112.286C22.912 112.714 22.8135 113.136 22.6194 113.517V113.517ZM16.2976 108.608C16.2159 108.691 16.118 108.755 16.01 108.799C15.902 108.842 15.7863 108.863 15.6699 108.86C15.4197 108.86 15.2102 108.777 15.0414 108.608C14.8726 108.44 14.7882 108.232 14.7882 107.984C14.7882 107.736 14.8726 107.529 15.0414 107.361C15.2102 107.192 15.4197 107.108 15.6699 107.108C15.9193 107.108 16.1281 107.192 16.2976 107.361C16.4672 107.529 16.5508 107.736 16.5508 107.984C16.5508 108.232 16.4672 108.44 16.2976 108.608ZM17.266 107.305H22.8176V108.662H17.266V107.305ZM22.3881 105.018C22.0429 105.377 21.5328 105.554 20.8576 105.554H18.434V106.409H17.266V105.554H15.8779L15.0196 104.197H17.2652V102.74H18.4333V104.197H20.8349C21.165 104.197 21.3986 104.136 21.5343 104.016C21.6707 103.896 21.7377 103.715 21.7377 103.474C21.7377 103.292 21.6948 103.116 21.6059 102.949L22.7076 102.631C22.8402 102.916 22.9065 103.215 22.9065 103.528C22.9058 104.164 22.7332 104.66 22.3881 105.018V105.018ZM22.4815 100.894C22.2119 101.282 21.8375 101.585 21.4016 101.77C20.9653 101.956 20.5109 102.049 20.0414 102.049C19.5719 102.049 19.1183 101.956 18.6812 101.77C18.2454 101.585 17.8709 101.281 17.6006 100.894C17.318 100.497 17.1763 99.9987 17.1763 99.4003C17.1763 98.8236 17.315 98.3421 17.59 97.9549C17.8506 97.5799 18.2109 97.2843 18.6307 97.1011C19.0367 96.9219 19.4759 96.8288 19.9201 96.8278H20.4823V100.626C20.8108 100.614 21.1236 100.484 21.3625 100.259C21.6126 100.029 21.7362 99.7171 21.7362 99.3239C21.7362 99.0168 21.6669 98.76 21.5275 98.5518C21.3881 98.3443 21.171 98.1563 20.8779 97.9878L21.2863 96.8929C21.8071 97.1198 22.208 97.4351 22.486 97.8403C22.7656 98.2455 22.9058 98.7652 22.9058 99.4003C22.9058 99.9979 22.7641 100.496 22.4815 100.894V100.894ZM19.4031 98.2177C19.0942 98.2837 18.841 98.4132 18.6428 98.6064C18.4446 98.7997 18.3459 99.064 18.3459 99.4003C18.3459 99.7216 18.4476 99.9875 18.6533 100.199C18.8591 100.411 19.1085 100.542 19.4024 100.593V98.2177H19.4031ZM22.5305 91.8474C22.2818 92.2706 21.9404 92.5934 21.5064 92.8165C21.0738 93.039 20.5863 93.1498 20.0422 93.1498C19.4989 93.1498 19.0105 93.039 18.578 92.8165C18.1439 92.5934 17.8025 92.2706 17.5531 91.8474C17.3037 91.4243 17.1793 90.9248 17.1793 90.3481C17.1793 89.7707 17.3037 89.2712 17.5531 88.848C17.7933 88.4335 18.1493 88.0971 18.578 87.8797C19.0105 87.6565 19.4996 87.5456 20.0422 87.5456C20.587 87.5456 21.0738 87.6565 21.5064 87.8797C21.935 88.0969 22.2908 88.4334 22.5305 88.848C22.7807 89.2704 22.905 89.7707 22.905 90.3481C22.9058 90.924 22.7807 91.4236 22.5305 91.8474V91.8474ZM21.2472 89.3408C20.9209 89.0929 20.5184 88.9686 20.0414 88.9686C19.5644 88.9686 19.162 89.0929 18.8342 89.3408C18.5079 89.588 18.3451 89.9235 18.3451 90.3481C18.3451 90.7705 18.5086 91.1068 18.8342 91.3546C19.162 91.6033 19.5644 91.7276 20.0414 91.7276C20.5184 91.7276 20.9209 91.6033 21.2472 91.3546C21.575 91.1068 21.737 90.7712 21.737 90.3481C21.7377 89.9235 21.575 89.588 21.2472 89.3408ZM18.434 86.2455V86.9465H17.266V86.2455H16.9789C16.3263 86.2455 15.8365 86.0755 15.5094 85.7363C15.1831 85.397 15.0203 84.9319 15.0203 84.341C15.0203 83.9246 15.0927 83.5816 15.2396 83.312L16.3421 83.6086C16.2465 83.8146 16.1939 84.0378 16.1876 84.2646C16.1876 84.681 16.419 84.8892 16.8809 84.8892H17.2667V83.7284H18.4348V84.8892H22.8184V86.2463H18.434V86.2455ZM22.3881 79.0432C22.0429 79.4019 21.5328 79.5801 20.8576 79.5801H18.434V80.4339H17.266V79.5801H15.8779L15.0196 78.2223H17.2652V76.7664H18.4333V78.2223H20.8349C21.165 78.2223 21.3986 78.1617 21.5343 78.0419C21.6707 77.922 21.7377 77.7408 21.7377 77.4996C21.7377 77.3169 21.6948 77.1417 21.6059 76.9739L22.7076 76.6564C22.8402 76.941 22.9065 77.2405 22.9065 77.5543C22.9058 78.1894 22.7332 78.6852 22.3881 79.0432V79.0432ZM15.0196 75.7187V74.3617H18.159C17.866 74.18 17.6223 73.9298 17.4491 73.633C17.2666 73.3227 17.1733 72.9686 17.1793 72.6092C17.1793 72.0767 17.321 71.6573 17.6028 71.3503C17.8862 71.044 18.3037 70.8904 18.8538 70.8904H22.8191V72.2482H19.3368C18.9985 72.2482 18.7498 72.3156 18.5878 72.4504C18.4258 72.586 18.3459 72.7912 18.3459 73.069C18.3459 73.2877 18.4235 73.4959 18.578 73.6929C18.7317 73.8899 18.9668 74.0509 19.2833 74.1752C19.5983 74.2995 19.9955 74.3617 20.4725 74.3617H22.8184V75.7187H15.0196V75.7187ZM22.4815 68.5029C22.2119 68.8901 21.8375 69.1936 21.4016 69.3784C20.9722 69.563 20.5093 69.6583 20.0414 69.6583C19.5735 69.6583 19.1106 69.563 18.6812 69.3784C18.2456 69.1932 17.8714 68.8898 17.6013 68.5029C17.3187 68.1044 17.1771 67.6064 17.1771 67.0088C17.1771 66.4314 17.3157 65.9505 17.5908 65.5634C17.8513 65.1882 18.2116 64.8923 18.6315 64.7088C19.0375 64.5296 19.4766 64.4365 19.9209 64.4355H20.483V68.234C20.8191 68.219 21.1145 68.097 21.3632 67.867C21.6134 67.6371 21.737 67.3248 21.737 66.9316C21.737 66.6253 21.6677 66.3677 21.5282 66.1603C21.3888 65.9521 21.1718 65.7641 20.8787 65.5963L21.2871 64.5014C21.8078 64.7276 22.2087 65.0436 22.4868 65.4488C22.7664 65.8539 22.9065 66.3729 22.9065 67.0088C22.9058 67.6057 22.7641 68.1044 22.4815 68.5029V68.5029ZM19.4031 65.8262C19.0942 65.8921 18.841 66.0217 18.6428 66.2149C18.4446 66.4089 18.3459 66.6725 18.3459 67.0095C18.3459 67.3301 18.4476 67.5967 18.6533 67.8079C18.8591 68.0191 19.1085 68.1509 19.4024 68.2018V65.8262H19.4031ZM15.107 60.3419V57.9439C15.107 57.3095 15.2479 56.7224 15.5267 56.1816C15.8048 55.6417 16.2336 55.2058 16.8101 54.874C17.3858 54.5415 18.104 54.376 18.9631 54.376C19.8214 54.376 20.5395 54.5415 21.116 54.874C21.6918 55.2058 22.1198 55.6417 22.3979 56.1816C22.6774 56.7224 22.8176 57.3095 22.8176 57.9439V60.3419H15.107ZM21.4958 58.394C21.4958 57.6638 21.3067 57.0526 20.9284 56.5606C20.5508 56.0678 19.8945 55.8214 18.9631 55.8214C18.0301 55.8214 17.3753 56.0678 16.997 56.5606C16.6187 57.0526 16.4288 57.6645 16.4288 58.394V58.9189H21.4966V58.394H21.4958ZM22.4657 52.9373C22.1718 53.2511 21.7573 53.4077 21.2215 53.4077C20.6707 53.4077 20.2306 53.2002 19.8998 52.7838C19.5689 52.3674 19.4039 51.8057 19.4039 51.098V50.1349H19.162C18.8907 50.1349 18.6865 50.2262 18.5501 50.4082C18.4137 50.5902 18.3459 50.8209 18.3459 51.098C18.3459 51.572 18.5584 51.8911 18.9857 52.0499L18.7204 53.1995C18.269 53.1185 17.8675 52.865 17.6021 52.4932C17.3203 52.1098 17.1786 51.6447 17.1786 51.098C17.1786 50.361 17.3753 49.7896 17.7679 49.3845C18.1605 48.98 18.7392 48.7763 19.5026 48.7763H22.8176V49.8937L22.1123 50.036C22.6413 50.4651 22.905 51.0321 22.905 51.7323C22.9058 52.2214 22.7588 52.6235 22.4657 52.9373V52.9373ZM21.4242 50.5063C21.2155 50.2577 20.9382 50.1341 20.5923 50.1341H20.4823V51.0426C20.4823 51.3421 20.5411 51.5735 20.6579 51.7383C20.7754 51.9023 20.9555 51.984 21.1982 51.984C21.272 51.9865 21.3455 51.9726 21.4132 51.9431C21.4809 51.9137 21.541 51.8696 21.5893 51.8139C21.6888 51.7009 21.7377 51.5533 21.7377 51.3706C21.7421 51.0543 21.6307 50.7471 21.4242 50.5063V50.5063ZM22.4657 46.1626L17.266 48.1652V46.7969L20.7468 45.5155L17.266 44.312V42.9542L25.0648 45.8009V47.1145L22.4657 46.1626ZM26.7377 12.7361L23.1341 23.9467H20.6729L18.7257 16.6956L16.7784 23.9467H14.3165L10.7121 12.7361H13.5102L15.5252 20.4312L17.428 12.7361H20.0233L21.9261 20.4312L23.9412 12.7361H26.7377ZM28.6202 20.3429C29.6948 20.3429 30.5011 21.1435 30.5011 22.2114C30.5011 23.2786 29.6948 24.08 28.6202 24.08C27.5456 24.08 26.7408 23.2786 26.7408 22.2114C26.74 21.1435 27.5456 20.3429 28.6202 20.3429" fill="#F9F5EF"/>
</svg>
