<svg width="96" height="96" viewBox="0 0 96 96" fill="none" xmlns="http://www.w3.org/2000/svg">
<path fill-rule="evenodd" clip-rule="evenodd" d="M48 0C21.4891 0 0 21.4916 0 48C0 74.5084 21.4891 96 48 96C74.5109 96 96 74.5084 96 48C96 21.4916 74.5109 0 48 0Z" fill="#F9F5EF"/>
<path d="M35.44 46.5647C35.28 46.485 35.12 46.485 34.88 46.485C34.56 46.485 34.32 46.6445 33.92 47.0431C33.76 47.2823 33.68 47.6013 33.68 48.0797C33.68 49.0365 34.08 49.5149 34.8 49.5149C35.04 49.5149 35.2 49.5149 35.44 49.4352C35.56 49.3953 35.66 49.3554 35.76 49.3156C35.86 49.2757 35.96 49.2358 36.08 49.196V50.3122C35.68 50.4717 35.28 50.5514 34.72 50.5514C34 50.5514 33.44 50.3122 33.04 49.9136C32.64 49.4352 32.48 48.7973 32.48 48C32.48 47.4418 32.64 47.0431 32.8 46.6445C32.96 46.2458 33.2 46.0066 33.6 45.7674C34 45.5282 34.4 45.4485 34.88 45.4485C35.44 45.4485 35.92 45.5282 36.4 45.7674L36 46.8039C35.92 46.7641 35.82 46.7242 35.72 46.6843C35.62 46.6445 35.52 46.6046 35.44 46.5647Z" fill="#171010"/>
<path d="M40.8 49.3554C40.56 49.3554 40.32 49.3554 40.08 49.2757L40.0479 49.2652L40.0087 49.2526L39.9339 49.2292C39.7201 49.1624 39.4738 49.0855 39.28 48.9567V50.1528L40 50.392C40.24 50.4717 40.48 50.4717 40.8 50.4717C41.2 50.4717 41.52 50.392 41.84 50.3122C42.16 50.1528 42.32 49.9933 42.48 49.7541C42.64 49.5149 42.72 49.2757 42.72 48.9567C42.72 48.6378 42.64 48.3189 42.48 48.1594C42.3456 47.9584 42.0981 47.8137 41.7852 47.6307C41.7257 47.5959 41.6639 47.5597 41.6 47.5215C41.4047 47.4242 41.2491 47.3533 41.1279 47.298C40.9512 47.2174 40.8475 47.1701 40.8 47.1229C40.72 47.0431 40.64 46.9634 40.64 46.8837C40.64 46.8039 40.64 46.7242 40.72 46.6445C40.8 46.5647 40.96 46.5647 41.12 46.5647C41.44 46.5647 41.84 46.6444 42.32 46.8837L42.72 45.8471C42.16 45.6079 41.68 45.5282 41.12 45.5282C40.56 45.5282 40.08 45.6876 39.76 45.9268C39.44 46.166 39.28 46.5647 39.28 46.9634C39.28 47.2026 39.28 47.4418 39.36 47.6013C39.44 47.7607 39.52 47.9202 39.68 48.0797C39.84 48.2391 40.08 48.3986 40.4 48.4783C40.5222 48.5392 40.6327 48.5885 40.7271 48.6306C40.8799 48.6987 40.9906 48.748 41.04 48.7973C41.0706 48.8277 41.1011 48.8466 41.1272 48.8626C41.1695 48.8886 41.2 48.9075 41.2 48.9567C41.2 48.9966 41.22 49.0165 41.24 49.0365C41.26 49.0564 41.28 49.0763 41.28 49.1162C41.28 49.1959 41.2 49.2757 41.12 49.3554H40.8Z" fill="#171010"/>
<path d="M46.32 49.2757C46.56 49.3554 46.8 49.3554 47.04 49.3554H47.36C47.44 49.2757 47.52 49.1959 47.52 49.1162C47.52 49.0763 47.5 49.0564 47.48 49.0365C47.46 49.0165 47.44 48.9966 47.44 48.9567C47.44 48.9075 47.4094 48.8886 47.3672 48.8626C47.3411 48.8466 47.3106 48.8277 47.28 48.7973C47.2306 48.748 47.12 48.6987 46.9672 48.6306C46.8728 48.5885 46.7622 48.5392 46.64 48.4783C46.32 48.3986 46.08 48.2391 45.92 48.0797C45.76 47.9202 45.68 47.7607 45.6 47.6013C45.52 47.4418 45.52 47.2026 45.52 46.9634C45.52 46.5647 45.68 46.166 46 45.9268C46.32 45.6876 46.8 45.5282 47.36 45.5282C47.92 45.5282 48.4 45.6079 48.96 45.8471L48.56 46.8837C48.08 46.6444 47.68 46.5647 47.36 46.5647C47.2 46.5647 47.04 46.5647 46.96 46.6445C46.88 46.7242 46.88 46.8039 46.88 46.8837C46.88 46.9634 46.96 47.0431 47.04 47.1229C47.0874 47.1701 47.1912 47.2174 47.3679 47.298C47.4891 47.3533 47.6447 47.4242 47.84 47.5215C47.9039 47.5597 47.9657 47.5959 48.0252 47.6307C48.3381 47.8137 48.5856 47.9584 48.72 48.1594C48.88 48.3189 48.96 48.6378 48.96 48.9567C48.96 49.2757 48.88 49.5149 48.72 49.7541C48.56 49.9933 48.4 50.1528 48.08 50.3122C47.76 50.392 47.44 50.4717 47.04 50.4717C46.72 50.4717 46.48 50.4717 46.24 50.392L45.52 50.1528V48.9567C45.7138 49.0855 45.9597 49.1623 46.1736 49.229C46.2245 49.2449 46.2739 49.2604 46.32 49.2757Z" fill="#171010"/>
<path fill-rule="evenodd" clip-rule="evenodd" d="M56.24 47.8405C56.24 47.0431 56 46.485 55.6 46.0863C55.2 45.6877 54.56 45.4485 53.76 45.4485H52.08V50.392H53.68C54.48 50.392 55.12 50.1528 55.6 49.7541C56 49.2757 56.24 48.6378 56.24 47.8405ZM54.56 48.9568C54.4 49.196 54.08 49.2757 53.68 49.2757H53.36V46.485H53.76C54.16 46.485 54.4 46.5647 54.56 46.8039C54.72 47.0431 54.8 47.3621 54.8 47.8405C54.88 48.3189 54.8 48.7176 54.56 48.9568Z" fill="#171010"/>
<path fill-rule="evenodd" clip-rule="evenodd" d="M62.48 50.392L62.24 49.4352H60.64L60.4 50.392H58.96L60.56 45.4485H62.32L63.92 50.392H62.48ZM61.36 46.2458C61.36 46.3255 61.36 46.5647 61.28 46.8039C61.28 47.0431 61.12 47.6013 60.88 48.3986H61.92L61.68 47.6013C61.68 47.4845 61.6371 47.3251 61.5828 47.1229C61.5629 47.0489 61.5415 46.9691 61.52 46.8837C61.4895 46.7619 61.4589 46.6634 61.4328 46.5792C61.3906 46.443 61.36 46.3444 61.36 46.2458Z" fill="#171010"/>
<path d="M54.64 41.8604L49.52 36.8371L44.48 41.8604H41.6L52.24 31.2557H41.12L30.4 41.8604H26.4V42.578H70.08V41.8604H54.64Z" fill="#171010"/>
<path d="M41.76 53.98H26.4V53.1826H70.08V53.98H65.68L60.64 58.9235L55.12 64.4252H43.92L54.48 53.98H51.76L46.72 58.9235L41.76 53.98Z" fill="#171010"/>
<path d="M16.64 45.289V46.6445L13.68 47.3621C13.6306 47.3621 13.52 47.3926 13.3672 47.4347C13.2728 47.4607 13.1622 47.4911 13.04 47.5216C12.72 47.6013 12.48 47.6013 12.4 47.6013C12.4989 47.6013 12.5978 47.6318 12.7344 47.6739C12.8189 47.6999 12.9178 47.7303 13.04 47.7608C13.1622 47.7912 13.261 47.8101 13.3455 47.8261C13.4821 47.8521 13.5811 47.871 13.68 47.9203L16.56 48.7176V50.0731L10.96 51.4286V50.3123L14 49.6744C14.56 49.5947 15.04 49.5149 15.44 49.4352C15.3681 49.4352 15.28 49.4191 15.183 49.4014C15.0643 49.3796 14.9321 49.3555 14.8 49.3555C14.666 49.3221 14.546 49.3027 14.44 49.2855C14.293 49.2618 14.173 49.2423 14.08 49.196L10.96 48.3189V47.2027L14.08 46.485C14.1789 46.485 14.2778 46.4546 14.4144 46.4125C14.4989 46.3865 14.5978 46.356 14.72 46.3256C15.04 46.2458 15.28 46.2458 15.44 46.2458C15.28 46.2458 14.96 46.1661 14.72 46.0864C14.586 46.053 14.466 46.0336 14.36 46.0164C14.213 45.9927 14.093 45.9732 14 45.9269L10.96 45.2093V44.093L16.64 45.289Z" fill="#171010"/>
<path d="M17.12 41.9402L17.92 38.8305L17.04 38.5913L16.56 40.5049L15.2 40.186L15.68 38.3521L14.72 38.1129L14.24 39.9468L13.04 39.6279L13.52 37.7142L12.56 37.475L11.76 40.5847L17.12 41.9402Z" fill="#171010"/>
<path fill-rule="evenodd" clip-rule="evenodd" d="M13.76 34.2059L14.48 32.6112C14.8 31.8936 15.12 31.4152 15.52 31.176C15.84 30.9368 16.24 30.9368 16.72 31.176C17.04 31.3355 17.2 31.495 17.36 31.7342C17.52 31.9734 17.52 32.2126 17.44 32.4518C17.68 32.1328 17.92 31.9734 18.16 31.9734C18.4 31.8936 18.72 31.9734 19.04 32.1328C19.52 32.372 19.76 32.691 19.92 33.0897C20.08 33.4883 19.92 34.0465 19.68 34.6046L18.8 36.4385L13.76 34.2059ZM16.24 34.0465L16.56 33.4086C16.72 33.0897 16.72 32.9302 16.72 32.691C16.72 32.5315 16.56 32.372 16.4 32.2923C16.24 32.2126 16 32.2126 15.92 32.2923C15.76 32.372 15.6 32.6112 15.52 32.9302L15.28 33.4883L16.24 34.0465ZM17.04 34.4451L18.32 35.083L18.64 34.3654C18.8 34.0465 18.8 33.8073 18.8 33.6478C18.72 33.4883 18.64 33.3289 18.4 33.1694C18 33.0099 17.6 33.1694 17.36 33.7275L17.04 34.4451Z" fill="#171010"/>
<path d="M23.12 28.3853C23.12 27.9069 22.88 27.588 22.48 27.269C22.32 27.1494 22.18 27.0697 22.04 26.99C21.9 26.9102 21.76 26.8305 21.6 26.7109C21.28 26.7109 20.88 26.8703 20.4 27.1095C20.1519 27.295 19.9519 27.3846 19.8 27.4527C19.756 27.4724 19.7159 27.4903 19.68 27.5082C19.52 27.588 19.44 27.588 19.36 27.588C19.28 27.588 19.2 27.588 19.12 27.5082C18.96 27.4285 18.88 27.269 18.88 27.1095C18.88 26.9501 18.88 26.7906 19.04 26.6311C19.0917 26.5282 19.1767 26.4584 19.2735 26.379C19.3266 26.3355 19.3833 26.289 19.44 26.2325C19.6 26.073 19.84 25.9135 20.08 25.7541L19.6 24.877C19.5201 24.9301 19.4313 24.9743 19.3425 25.0186C19.1647 25.1072 18.9867 25.1959 18.88 25.3554C18.8 25.475 18.7 25.5747 18.6 25.6743C18.5 25.774 18.4 25.8737 18.32 25.9933C18 26.4717 17.84 26.9501 17.84 27.3488C17.84 27.8272 18.08 28.1461 18.48 28.465C18.5301 28.4983 18.5767 28.5316 18.6213 28.5634C18.7903 28.6841 18.9301 28.784 19.12 28.784C19.36 28.8637 19.52 28.8637 19.76 28.784C19.92 28.784 20.24 28.6245 20.56 28.465C20.7087 28.3909 20.8575 28.334 20.9821 28.2863C21.1256 28.2314 21.2372 28.1888 21.28 28.1461C21.36 28.0664 21.52 28.0664 21.6 28.0664C21.68 28.0664 21.76 28.1461 21.84 28.2258C22 28.3056 22.08 28.465 22.08 28.6245C22.08 28.784 22 28.9434 21.84 29.1826C21.76 29.3421 21.6 29.5016 21.36 29.661C21.2706 29.7204 21.1702 29.7798 21.0628 29.8433C20.8817 29.9503 20.6808 30.069 20.48 30.2192L21.36 30.8571C21.84 30.6179 22.24 30.2989 22.56 29.8205C22.96 29.3421 23.12 28.8637 23.12 28.3853Z" fill="#171010"/>
<path d="M25.36 26.3919L21.44 22.485L22.24 21.6876L26.16 25.5946L25.36 26.3919Z" fill="#171010"/>
<path d="M28.96 23.2026L29.92 22.485L27.2 18.8172L28.4 17.9402L27.84 17.1428L24.48 19.6146L25.04 20.4119L26.24 19.5348L28.96 23.2026Z" fill="#171010"/>
<path d="M35.92 19.1361L33.04 20.4916L30.64 15.4684L33.52 14.1129L33.92 14.9899L32.08 15.867L32.64 16.9833L34.32 16.186L34.72 17.063L33.04 17.8604L33.68 19.1361L35.52 18.2591L35.92 19.1361Z" fill="#171010"/>
<path fill-rule="evenodd" clip-rule="evenodd" d="M46.48 16.186C46.88 15.7076 47.04 14.9102 46.96 14.0331C46.88 13.0763 46.56 12.4384 46.08 11.96C45.6 11.4816 44.96 11.3222 44.08 11.4019C43.28 11.5614 42.64 11.8803 42.24 12.3587C41.84 12.8371 41.68 13.5547 41.76 14.5115C41.84 15.4683 42.16 16.1062 42.64 16.5846C43.12 17.063 43.76 17.2225 44.64 17.1428C45.44 17.063 46.08 16.6644 46.48 16.186ZM43.44 15.7873C43.2 15.4683 43.04 15.0697 42.96 14.4318C42.88 13.7939 42.88 13.3155 43.12 12.9966C43.36 12.6777 43.68 12.5182 44.16 12.4384C45.12 12.3587 45.6 12.9169 45.76 14.1926C45.92 15.3886 45.52 16.1062 44.56 16.186C44.08 16.186 43.68 16.1062 43.44 15.7873Z" fill="#171010"/>
<path d="M50.88 16.9834L49.76 16.9036L50.32 11.402L53.44 11.7209L53.36 12.6777L51.36 12.4385L51.2 13.8737L53.04 14.0332L52.96 14.99L51.12 14.8306L50.88 16.9834Z" fill="#171010"/>
<path d="M60.16 19.3753L61.2 19.8537L63.2 15.7076L64.56 16.3454L64.96 15.4684L61.12 13.7142L60.72 14.5913L62.08 15.2291L60.16 19.3753Z" fill="#171010"/>
<path d="M68.08 24.2392L67.12 23.5216L68.56 21.6079L66.8 20.3322L65.36 22.2458L64.4 21.5282L67.68 17.0631L68.64 17.7807L67.36 19.5349L69.12 20.8106L70.4 19.0565L71.36 19.7741L68.08 24.2392Z" fill="#171010"/>
<path d="M70 26.073L72.16 28.465L72.96 27.8272L71.6 26.3122L72.64 25.3554L73.92 26.7109L74.64 26.073L73.36 24.7175L74.24 23.9202L75.6 25.4352L76.32 24.7973L74.16 22.4053L70 26.073Z" fill="#171010"/>
<path fill-rule="evenodd" clip-rule="evenodd" d="M80.16 37.1561C79.28 37.475 78.56 37.5548 77.92 37.2358C77.28 36.9169 76.72 36.3588 76.4 35.4817L75.76 34.0465L80.88 31.8936L81.52 33.4883C81.84 34.2857 81.92 35.083 81.68 35.7209C81.44 36.3588 80.96 36.8372 80.16 37.1561ZM79.6 36.0398C80.72 35.5614 81.04 34.8438 80.64 33.887L80.4 33.3289L77.04 34.6843L77.2 35.1627C77.76 36.1993 78.48 36.5182 79.6 36.0398Z" fill="#171010"/>
<path fill-rule="evenodd" clip-rule="evenodd" d="M79.92 43.2956L78.72 43.9335L78.96 45.1295L84.08 42.2591L83.84 40.8239L78 39.8671L78.24 41.1428L79.6 41.3023L79.92 43.2956ZM82.8 41.8604L80.88 42.8172L80.64 41.382C81.92 41.6212 82.8 41.701 83.12 41.701C83.0706 41.701 83.0211 41.7314 82.9528 41.7735C82.9106 41.7995 82.8611 41.83 82.8 41.8604Z" fill="#171010"/>
<path d="M82.24 48.9568L84.48 50.1528V51.4286L81.12 49.5149L78.96 49.4352V48.2392L81.12 48.3189L84.56 46.5648V47.8405L82.24 48.9568Z" fill="#171010"/>
<path fill-rule="evenodd" clip-rule="evenodd" d="M25.84 75.269L25.2 76.6245L26.24 77.5016L28.64 71.681L27.52 70.6445L21.92 73.7541L22.96 74.6312L24.24 73.8338L25.84 75.269ZM27.04 72.6765L27.0394 72.6777C26.8762 73.0336 26.6364 73.5567 26.32 74.2325L25.12 73.1959C25.6696 72.8536 26.1159 72.5848 26.4717 72.3705L26.4741 72.369C26.9453 72.0852 27.2578 71.8969 27.44 71.7607C27.44 71.8405 27.36 71.9999 27.28 72.1594C27.2453 72.2287 27.1652 72.4033 27.04 72.6765Z" fill="#171010"/>
<path d="M32.96 81.4086L33.6 78.2193C33.6 78.1794 33.62 78.0997 33.65 77.9801C33.68 77.8605 33.72 77.701 33.76 77.5016C33.84 77.1827 33.92 76.9435 34 76.784C33.9551 76.8736 33.8849 76.9631 33.8038 77.0667C33.7403 77.1477 33.6702 77.2373 33.6 77.3422C33.4907 77.4511 33.4146 77.56 33.3491 77.6538C33.2706 77.7661 33.2072 77.8569 33.12 77.9003L30.96 80.3721L29.68 79.7342L30.96 73.6744L32.08 74.2325L31.28 77.5016C31.12 78.1395 30.96 78.6179 30.8 79.0166C30.8449 78.9271 30.9151 78.8375 30.9963 78.7339C31.0597 78.6529 31.1299 78.5633 31.2 78.4585C31.2734 78.3487 31.3636 78.239 31.4475 78.137C31.5465 78.0166 31.6367 77.9069 31.68 77.8206L34 75.1893L35.04 75.7475L34.32 79.1761C34.32 79.2927 34.2772 79.4521 34.2229 79.6542C34.203 79.7282 34.1814 79.8082 34.16 79.8937C34.08 80.2125 34 80.4517 33.9201 80.6909C34.0001 80.5314 34.16 80.2923 34.4 80.0531C34.56 79.8139 34.72 79.5747 34.88 79.4153L37.04 76.8638L38.16 77.4219L34.24 82.0465L32.96 81.4086Z" fill="#171010"/>
<path fill-rule="evenodd" clip-rule="evenodd" d="M42.4 82.7641L42.56 84.2791L43.84 84.598L42.88 78.299L41.36 77.9801L38.16 83.4817L39.52 83.7209L40.24 82.3654L42.4 82.7641ZM42.08 79.4153C42.08 79.6545 42.16 80.3721 42.32 81.7276L40.8 81.4086C41.52 80.1329 41.92 79.3355 42.08 79.0166V79.4153Z" fill="#171010"/>
<path fill-rule="evenodd" clip-rule="evenodd" d="M48.4 82.3654L48.48 84.6777H47.2L46.96 78.6976L48.72 78.6179C49.52 78.6179 50.16 78.6976 50.56 79.0165C50.96 79.3355 51.2 79.7342 51.2 80.372C51.2 80.691 51.12 81.0099 50.96 81.3288C50.8 81.6478 50.48 81.8072 50.16 81.9667C51.12 83.2425 51.76 84.1195 52 84.5182L50.56 84.5979L49.04 82.3654H48.4ZM48.32 81.3288H48.72C49.12 81.3288 49.44 81.2491 49.6 81.0896C49.76 80.9302 49.84 80.7707 49.84 80.4518C49.84 80.1328 49.76 79.9734 49.52 79.8936C49.28 79.8139 49.04 79.7342 48.64 79.7342H48.24L48.32 81.3288Z" fill="#171010"/>
<path fill-rule="evenodd" clip-rule="evenodd" d="M59.04 82.1262C59.36 81.4883 59.44 80.691 59.2 79.7342C58.96 78.7774 58.48 78.2192 57.92 77.98C57.28 77.5814 56.48 77.5814 55.52 77.8206L53.68 78.299L55.28 84.0398L56.88 83.5614C57.92 83.2425 58.72 82.7641 59.04 82.1262ZM55.76 78.6179C56.88 78.3787 57.6 78.7774 57.92 80.0531C58.32 81.3289 57.92 82.1262 56.72 82.3654L56.16 82.5249L55.12 78.7774L55.76 78.6179Z" fill="#171010"/>
<path d="M63.44 81.1694L60.56 75.9069L63.6 74.2325L64.08 75.1096L62.16 76.1461L62.8 77.3421L64.56 76.3853L65.04 77.2624L63.28 78.2192L64 79.5747L65.92 78.5381L66.48 79.495L63.44 81.1694Z" fill="#171010"/>
<path fill-rule="evenodd" clip-rule="evenodd" d="M72.24 74.0731C72.32 73.3555 72 72.5581 71.36 71.8405C70.72 71.1229 70 70.804 69.28 70.804C68.48 70.7242 67.76 71.0432 67.04 71.681L65.6 72.877L69.6 77.4219L70.96 76.2259C71.76 75.588 72.16 74.8704 72.24 74.0731ZM67.76 72.3986C68.64 71.6013 69.44 71.7608 70.32 72.7176C71.2 73.7541 71.2 74.6312 70.24 75.5083L69.84 75.8272L67.28 72.877L67.76 72.3986Z" fill="#171010"/>
</svg>
